<?xml version="1.0" standalone="no"?><!DOCTYPE svg PUBLIC "-//W3C//DTD SVG 1.1//EN" "http://www.w3.org/Graphics/SVG/1.1/DTD/svg11.dtd"><svg t="1569326819585" class="icon" viewBox="0 0 1024 1024" version="1.1" xmlns="http://www.w3.org/2000/svg" p-id="2488" xmlns:xlink="http://www.w3.org/1999/xlink" width="128" height="128"><defs><style type="text/css"></style></defs><path d="M282.902505 242.844375l154.503995 576.753338L859.655843 397.381958z m143.420013 143.420013L663.670884 449.879729 489.937859 623.612754z" fill="#e16531" p-id="2489"></path><path d="M239.863761 199.801289m-140.886061 140.886061a199.242978 199.242978 0 1 0 281.772122-281.772122 199.242978 199.242978 0 1 0-281.772122 281.772122Z" fill="#e16531" p-id="2490"></path><path d="M863.10896 384.41833m-85.013766 85.013765a120.22762 120.22762 0 1 0 170.027531-170.02753 120.22762 120.22762 0 1 0-170.027531 170.02753Z" fill="#e16531" p-id="2491"></path><path d="M437.804804 853.926438m-120.259031 120.259031a170.071952 170.071952 0 1 0 240.518062-240.518062 170.071952 170.071952 0 1 0-240.518062 240.518062Z" fill="#e16531" p-id="2492"></path></svg>